# xmcd CD database file
#
# Track frame offsets:
#	150
#	23877
#	37862
#	52015
#	71707
#	102460
#	123100
#	139302
#	154680
#	173507
#	192927
#	212390
#
# Disc length: 3043 seconds
#
# Revision: 0
# Processed by: cddbd v1.5.1PL2 Copyright (c) Steve Scherf et al.
# Submitted via: CDex 1.51
#
DISCID=9f0be10c
DTITLE=Triologia del cosmos  - El Principio de los tiempos
DYEAR=1994
DGENRE=New Age
TTITLE0=Army Ants
TTITLE1=Ouroboros
TTITLE2=Autumn Forest
TTITLE3=Alliance
TTITLE4=A Viking Dream
TTITLE5=Queen Of Shadows
TTITLE6=The Dawning
TTITLE7=May Be Tomorrow
TTITLE8=Sunrise
TTITLE9=Glacier
TTITLE10=Hand Of Apollo
TTITLE11=Farewell
EXTD=YEAR: 1994
EXTT0=
EXTT1=
EXTT2=
EXTT3=
EXTT4=
EXTT5=
EXTT6=
EXTT7=
EXTT8=
EXTT9=
EXTT10=
EXTT11=
PLAYORDER=
